<?xml version="1.0" encoding="UTF-8" standalone="no"?>
<!DOCTYPE svg PUBLIC "-//W3C//DTD SVG 1.1//EN" "http://www.w3.org/Graphics/SVG/1.1/DTD/svg11.dtd">
<svg width="100%" height="100%" viewBox="0 0 617 58" version="1.1" xmlns="http://www.w3.org/2000/svg" xmlns:xlink="http://www.w3.org/1999/xlink" xml:space="preserve" xmlns:serif="http://www.serif.com/" style="fill-rule:evenodd;clip-rule:evenodd;stroke-linejoin:round;stroke-miterlimit:2;">
    <g id="FEATURY" transform="matrix(1,0,0,1,-323.82,-98.62)">
        <path d="M423.6,128.46L462.59,128.46L462.59,126.59L423.6,126.59L423.6,101.78L468.53,101.78L468.53,98.72L413.52,98.72L413.52,156.32L469.61,156.32L469.61,153.26L423.6,153.26L423.6,128.46Z" style="fill:rgb(234,0,28);fill-rule:nonzero;"/>
        <path d="M323.82,156.32L323.82,98.72L378.83,98.72L378.83,101.78L333.9,101.78L333.9,126.59L372.89,126.59L372.89,128.46L333.9,128.46L333.9,153.26L323.82,156.32Z" style="fill:rgb(234,0,28);fill-rule:nonzero;"/>
        <path d="M539.55,98.72L554.33,142.03L516.83,142.03L531.61,98.72L523.36,98.72L503.71,156.32L512.05,156.32L516.06,145.09L555.1,145.09L559.11,156.32L567.45,156.32L547.8,98.72L539.55,98.72Z" style="fill:rgb(234,0,28);fill-rule:nonzero;"/>
        <path d="M596.96,103.94L623.1,103.94L623.1,156.32L633.18,156.32L633.18,103.94L659.31,103.94L659.31,98.72L596.96,98.72L596.96,103.94Z" style="fill:rgb(234,0,28);fill-rule:nonzero;"/>
        <path d="M750,98.62L750,135.62C750.118,140.918 747.715,145.969 743.53,149.22C739.95,152 729.88,153.41 724.46,153.41C719.643,153.566 714.908,152.121 711,149.3C706.767,146.077 704.331,141.009 704.46,135.69L704.46,98.62L693.26,98.62L693.26,133.74C693.26,139.17 694.45,143.42 696.88,146.69C699.361,150.05 702.819,152.565 706.78,153.89C718.307,157.289 730.573,157.289 742.1,153.89C746.062,152.572 749.519,150.055 751.99,146.69C754.43,143.42 755.62,139.25 755.62,133.95L755.62,98.62L750,98.62Z" style="fill:rgb(234,0,28);fill-rule:nonzero;"/>
        <path d="M850.31,129.35C853.5,127.5 857.17,124.29 857.17,115.86C857.17,110.53 855.48,106.68 851.85,103.73C847.76,100.41 841.79,98.73 834.09,98.73L798.16,98.73L798.16,156.33L809.32,156.33L809.32,132.24L833.25,132.24L844,156.32L854.93,156.32L842.84,133.72L850.31,129.35ZM831.82,130.26L809.32,130.26L809.32,100.81L831.82,100.81C836.23,100.699 840.411,102.818 842.93,106.44C844.818,109.175 845.817,112.427 845.79,115.75C845.841,119.266 844.655,122.69 842.44,125.42C839.819,128.558 835.908,130.341 831.82,130.26Z" style="fill:rgb(234,0,28);fill-rule:nonzero;"/>
        <path d="M912.29,131.5L893.58,98.72L884.73,98.72L907.06,135.82L907.06,156.32L917.9,156.32L917.9,135.82L940.32,98.72L931.68,98.72L912.29,131.5Z" style="fill:rgb(234,0,28);fill-rule:nonzero;"/>
    </g>
</svg>
