<svg viewBox="0 0 617 58" xmlns="http://www.w3.org/2000/svg" xml:space="preserve" fill-rule="evenodd" clip-rule="evenodd" stroke-linejoin="round" stroke-miterlimit="2"><path d="M99.78 29.84h38.99v-1.87H99.78V3.16h44.93V.1H89.7v57.6h56.09v-3.06H99.78zM0 57.7V.1h55.01v3.06H10.08v24.81h38.99v1.87H10.08v24.8zM215.73.1l14.78 43.31h-37.5L207.79.1h-8.25l-19.65 57.6h8.34l4.01-11.23h39.04l4.01 11.23h8.34L223.98.1zm57.41 5.22h26.14V57.7h10.08V5.32h26.13V.1h-62.35zM426.18 0v37a16.8 16.8 0 0 1-6.47 13.6c-3.58 2.78-13.65 4.19-19.07 4.19a21.8 21.8 0 0 1-13.46-4.11 16.6 16.6 0 0 1-6.54-13.61V0h-11.2v35.12c0 5.43 1.19 9.68 3.62 12.95a20.3 20.3 0 0 0 9.9 7.2 62.4 62.4 0 0 0 35.32 0 20 20 0 0 0 9.89-7.2c2.44-3.27 3.63-7.44 3.63-12.74V0zm100.31 30.73c3.19-1.85 6.86-5.06 6.86-13.49 0-5.33-1.69-9.18-5.32-12.13-4.09-3.32-10.06-5-17.76-5h-35.93v57.6h11.16V33.62h23.93l10.75 24.08h10.93l-12.09-22.6zm-18.49.91h-22.5V2.19H508c4.41-.11 8.6 2 11.11 5.63a16 16 0 0 1 2.86 9.31 15 15 0 0 1-3.35 9.67A13.5 13.5 0 0 1 508 31.64m80.47 1.24L569.76.1h-8.85l22.33 37.1v20.5h10.84V37.2L616.5.1h-8.64z" fill="#f0d5a7" fill-rule="nonzero"/></svg>
